<?xml version="1.0" encoding="utf-8"?>
<!-- Generator: Adobe Illustrator 18.1.1, SVG Export Plug-In . SVG Version: 6.00 Build 0)  -->
<svg version="1.1" id="Layer_1" xmlns="http://www.w3.org/2000/svg" xmlns:xlink="http://www.w3.org/1999/xlink" x="0px" y="0px"
	 viewBox="2.2 2.2 11.6 11.6" enable-background="new 2.2 2.2 11.6 11.6" xml:space="preserve">
<rect x="0" y="0" fill="#FFFFFF" width="16" height="16"/>
<rect x="2.2" y="2.2" width="0.6" height="0.6"/>
<rect x="2.8" y="2.2" width="0.6" height="0.6"/>
<rect x="3.3" y="2.2" width="0.6" height="0.6"/>
<rect x="3.9" y="2.2" width="0.6" height="0.6"/>
<rect x="4.4" y="2.2" width="0.6" height="0.6"/>
<rect x="5" y="2.2" width="0.6" height="0.6"/>
<rect x="5.5" y="2.2" width="0.6" height="0.6"/>
<rect x="6.6" y="2.2" width="0.6" height="0.6"/>
<rect x="7.2" y="2.2" width="0.6" height="0.6"/>
<rect x="7.7" y="2.2" width="0.6" height="0.6"/>
<rect x="8.3" y="2.2" width="0.6" height="0.6"/>
<rect x="8.8" y="2.2" width="0.6" height="0.6"/>
<rect x="9.9" y="2.2" width="0.6" height="0.6"/>
<rect x="10.5" y="2.2" width="0.6" height="0.6"/>
<rect x="11" y="2.2" width="0.6" height="0.6"/>
<rect x="11.6" y="2.2" width="0.6" height="0.6"/>
<rect x="12.1" y="2.2" width="0.6" height="0.6"/>
<rect x="12.7" y="2.2" width="0.6" height="0.6"/>
<rect x="13.2" y="2.2" width="0.6" height="0.6"/>
<rect x="2.2" y="2.8" width="0.6" height="0.6"/>
<rect x="5.5" y="2.8" width="0.6" height="0.6"/>
<rect x="6.6" y="2.8" width="0.6" height="0.6"/>
<rect x="7.7" y="2.8" width="0.6" height="0.6"/>
<rect x="8.8" y="2.8" width="0.6" height="0.6"/>
<rect x="9.9" y="2.8" width="0.6" height="0.6"/>
<rect x="13.2" y="2.8" width="0.6" height="0.6"/>
<rect x="2.2" y="3.3" width="0.6" height="0.6"/>
<rect x="3.3" y="3.3" width="0.6" height="0.6"/>
<rect x="3.9" y="3.3" width="0.6" height="0.6"/>
<rect x="4.4" y="3.3" width="0.6" height="0.6"/>
<rect x="5.5" y="3.3" width="0.6" height="0.6"/>
<rect x="6.6" y="3.3" width="0.6" height="0.6"/>
<rect x="9.9" y="3.3" width="0.6" height="0.6"/>
<rect x="11" y="3.3" width="0.6" height="0.6"/>
<rect x="11.6" y="3.3" width="0.6" height="0.6"/>
<rect x="12.1" y="3.3" width="0.6" height="0.6"/>
<rect x="13.2" y="3.3" width="0.6" height="0.6"/>
<rect x="2.2" y="3.9" width="0.6" height="0.6"/>
<rect x="3.3" y="3.9" width="0.6" height="0.6"/>
<rect x="3.9" y="3.9" width="0.6" height="0.6"/>
<rect x="4.4" y="3.9" width="0.6" height="0.6"/>
<rect x="5.5" y="3.9" width="0.6" height="0.6"/>
<rect x="6.6" y="3.9" width="0.6" height="0.6"/>
<rect x="7.2" y="3.9" width="0.6" height="0.6"/>
<rect x="7.7" y="3.9" width="0.6" height="0.6"/>
<rect x="8.3" y="3.9" width="0.6" height="0.6"/>
<rect x="9.9" y="3.9" width="0.6" height="0.6"/>
<rect x="11" y="3.9" width="0.6" height="0.6"/>
<rect x="11.6" y="3.9" width="0.6" height="0.6"/>
<rect x="12.1" y="3.9" width="0.6" height="0.6"/>
<rect x="13.2" y="3.9" width="0.6" height="0.6"/>
<rect x="2.2" y="4.4" width="0.6" height="0.6"/>
<rect x="3.3" y="4.4" width="0.6" height="0.6"/>
<rect x="3.9" y="4.4" width="0.6" height="0.6"/>
<rect x="4.4" y="4.4" width="0.6" height="0.6"/>
<rect x="5.5" y="4.4" width="0.6" height="0.6"/>
<rect x="8.8" y="4.4" width="0.6" height="0.6"/>
<rect x="9.9" y="4.4" width="0.6" height="0.6"/>
<rect x="11" y="4.4" width="0.6" height="0.6"/>
<rect x="11.6" y="4.4" width="0.6" height="0.6"/>
<rect x="12.1" y="4.4" width="0.6" height="0.6"/>
<rect x="13.2" y="4.4" width="0.6" height="0.6"/>
<rect x="2.2" y="5" width="0.6" height="0.6"/>
<rect x="5.5" y="5" width="0.6" height="0.6"/>
<rect x="6.6" y="5" width="0.6" height="0.6"/>
<rect x="7.2" y="5" width="0.6" height="0.6"/>
<rect x="8.3" y="5" width="0.6" height="0.6"/>
<rect x="9.9" y="5" width="0.6" height="0.6"/>
<rect x="13.2" y="5" width="0.6" height="0.6"/>
<rect x="2.2" y="5.5" width="0.6" height="0.6"/>
<rect x="2.8" y="5.5" width="0.6" height="0.6"/>
<rect x="3.3" y="5.5" width="0.6" height="0.6"/>
<rect x="3.9" y="5.5" width="0.6" height="0.6"/>
<rect x="4.4" y="5.5" width="0.6" height="0.6"/>
<rect x="5" y="5.5" width="0.6" height="0.6"/>
<rect x="5.5" y="5.5" width="0.6" height="0.6"/>
<rect x="6.6" y="5.5" width="0.6" height="0.6"/>
<rect x="7.7" y="5.5" width="0.6" height="0.6"/>
<rect x="8.8" y="5.5" width="0.6" height="0.6"/>
<rect x="9.9" y="5.5" width="0.6" height="0.6"/>
<rect x="10.5" y="5.5" width="0.6" height="0.6"/>
<rect x="11" y="5.5" width="0.6" height="0.6"/>
<rect x="11.6" y="5.5" width="0.6" height="0.6"/>
<rect x="12.1" y="5.5" width="0.6" height="0.6"/>
<rect x="12.7" y="5.5" width="0.6" height="0.6"/>
<rect x="13.2" y="5.5" width="0.6" height="0.6"/>
<rect x="7.2" y="6.1" width="0.6" height="0.6"/>
<rect x="7.7" y="6.1" width="0.6" height="0.6"/>
<rect x="8.3" y="6.1" width="0.6" height="0.6"/>
<rect x="8.8" y="6.1" width="0.6" height="0.6"/>
<rect x="2.2" y="6.6" width="0.6" height="0.6"/>
<rect x="2.8" y="6.6" width="0.6" height="0.6"/>
<rect x="4.4" y="6.6" width="0.6" height="0.6"/>
<rect x="5" y="6.6" width="0.6" height="0.6"/>
<rect x="5.5" y="6.6" width="0.6" height="0.6"/>
<rect x="7.2" y="6.6" width="0.6" height="0.6"/>
<rect x="8.3" y="6.6" width="0.6" height="0.6"/>
<rect x="10.5" y="6.6" width="0.6" height="0.6"/>
<rect x="11.6" y="6.6" width="0.6" height="0.6"/>
<rect x="12.1" y="6.6" width="0.6" height="0.6"/>
<rect x="12.7" y="6.6" width="0.6" height="0.6"/>
<rect x="13.2" y="6.6" width="0.6" height="0.6"/>
<rect x="3.9" y="7.2" width="0.6" height="0.6"/>
<rect x="5" y="7.2" width="0.6" height="0.6"/>
<rect x="6.1" y="7.2" width="0.6" height="0.6"/>
<rect x="6.6" y="7.2" width="0.6" height="0.6"/>
<rect x="7.7" y="7.2" width="0.6" height="0.6"/>
<rect x="8.8" y="7.2" width="0.6" height="0.6"/>
<rect x="9.4" y="7.2" width="0.6" height="0.6"/>
<rect x="9.9" y="7.2" width="0.6" height="0.6"/>
<rect x="11" y="7.2" width="0.6" height="0.6"/>
<rect x="11.6" y="7.2" width="0.6" height="0.6"/>
<rect x="12.7" y="7.2" width="0.6" height="0.6"/>
<rect x="3.3" y="7.7" width="0.6" height="0.6"/>
<rect x="3.9" y="7.7" width="0.6" height="0.6"/>
<rect x="5" y="7.7" width="0.6" height="0.6"/>
<rect x="5.5" y="7.7" width="0.6" height="0.6"/>
<rect x="8.3" y="7.7" width="0.6" height="0.6"/>
<rect x="10.5" y="7.7" width="0.6" height="0.6"/>
<rect x="11" y="7.7" width="0.6" height="0.6"/>
<rect x="12.1" y="7.7" width="0.6" height="0.6"/>
<rect x="12.7" y="7.7" width="0.6" height="0.6"/>
<rect x="2.8" y="8.3" width="0.6" height="0.6"/>
<rect x="3.3" y="8.3" width="0.6" height="0.6"/>
<rect x="6.6" y="8.3" width="0.6" height="0.6"/>
<rect x="7.2" y="8.3" width="0.6" height="0.6"/>
<rect x="7.7" y="8.3" width="0.6" height="0.6"/>
<rect x="8.3" y="8.3" width="0.6" height="0.6"/>
<rect x="9.4" y="8.3" width="0.6" height="0.6"/>
<rect x="11" y="8.3" width="0.6" height="0.6"/>
<rect x="12.7" y="8.3" width="0.6" height="0.6"/>
<rect x="13.2" y="8.3" width="0.6" height="0.6"/>
<rect x="2.2" y="8.8" width="0.6" height="0.6"/>
<rect x="2.8" y="8.8" width="0.6" height="0.6"/>
<rect x="3.3" y="8.8" width="0.6" height="0.6"/>
<rect x="3.9" y="8.8" width="0.6" height="0.6"/>
<rect x="4.4" y="8.8" width="0.6" height="0.6"/>
<rect x="5.5" y="8.8" width="0.6" height="0.6"/>
<rect x="8.3" y="8.8" width="0.6" height="0.6"/>
<rect x="8.8" y="8.8" width="0.6" height="0.6"/>
<rect x="9.9" y="8.8" width="0.6" height="0.6"/>
<rect x="10.5" y="8.8" width="0.6" height="0.6"/>
<rect x="13.2" y="8.8" width="0.6" height="0.6"/>
<rect x="6.6" y="9.4" width="0.6" height="0.6"/>
<rect x="7.2" y="9.4" width="0.6" height="0.6"/>
<rect x="9.9" y="9.4" width="0.6" height="0.6"/>
<rect x="11" y="9.4" width="0.6" height="0.6"/>
<rect x="11.6" y="9.4" width="0.6" height="0.6"/>
<rect x="12.7" y="9.4" width="0.6" height="0.6"/>
<rect x="13.2" y="9.4" width="0.6" height="0.6"/>
<rect x="2.2" y="9.9" width="0.6" height="0.6"/>
<rect x="2.8" y="9.9" width="0.6" height="0.6"/>
<rect x="3.3" y="9.9" width="0.6" height="0.6"/>
<rect x="3.9" y="9.9" width="0.6" height="0.6"/>
<rect x="4.4" y="9.9" width="0.6" height="0.6"/>
<rect x="5" y="9.9" width="0.6" height="0.6"/>
<rect x="5.5" y="9.9" width="0.6" height="0.6"/>
<rect x="7.7" y="9.9" width="0.6" height="0.6"/>
<rect x="9.4" y="9.9" width="0.6" height="0.6"/>
<rect x="9.9" y="9.9" width="0.6" height="0.6"/>
<rect x="11" y="9.9" width="0.6" height="0.6"/>
<rect x="12.1" y="9.9" width="0.6" height="0.6"/>
<rect x="12.7" y="9.9" width="0.6" height="0.6"/>
<rect x="2.2" y="10.5" width="0.6" height="0.6"/>
<rect x="5.5" y="10.5" width="0.6" height="0.6"/>
<rect x="6.6" y="10.5" width="0.6" height="0.6"/>
<rect x="7.2" y="10.5" width="0.6" height="0.6"/>
<rect x="8.3" y="10.5" width="0.6" height="0.6"/>
<rect x="9.4" y="10.5" width="0.6" height="0.6"/>
<rect x="11" y="10.5" width="0.6" height="0.6"/>
<rect x="12.7" y="10.5" width="0.6" height="0.6"/>
<rect x="2.2" y="11" width="0.6" height="0.6"/>
<rect x="3.3" y="11" width="0.6" height="0.6"/>
<rect x="3.9" y="11" width="0.6" height="0.6"/>
<rect x="4.4" y="11" width="0.6" height="0.6"/>
<rect x="5.5" y="11" width="0.6" height="0.6"/>
<rect x="6.6" y="11" width="0.6" height="0.6"/>
<rect x="7.2" y="11" width="0.6" height="0.6"/>
<rect x="7.7" y="11" width="0.6" height="0.6"/>
<rect x="8.3" y="11" width="0.6" height="0.6"/>
<rect x="9.4" y="11" width="0.6" height="0.6"/>
<rect x="11" y="11" width="0.6" height="0.6"/>
<rect x="2.2" y="11.6" width="0.6" height="0.6"/>
<rect x="3.3" y="11.6" width="0.6" height="0.6"/>
<rect x="3.9" y="11.6" width="0.6" height="0.6"/>
<rect x="4.4" y="11.6" width="0.6" height="0.6"/>
<rect x="5.5" y="11.6" width="0.6" height="0.6"/>
<rect x="7.7" y="11.6" width="0.6" height="0.6"/>
<rect x="10.5" y="11.6" width="0.6" height="0.6"/>
<rect x="11" y="11.6" width="0.6" height="0.6"/>
<rect x="11.6" y="11.6" width="0.6" height="0.6"/>
<rect x="12.1" y="11.6" width="0.6" height="0.6"/>
<rect x="12.7" y="11.6" width="0.6" height="0.6"/>
<rect x="13.2" y="11.6" width="0.6" height="0.6"/>
<rect x="2.2" y="12.1" width="0.6" height="0.6"/>
<rect x="3.3" y="12.1" width="0.6" height="0.6"/>
<rect x="3.9" y="12.1" width="0.6" height="0.6"/>
<rect x="4.4" y="12.1" width="0.6" height="0.6"/>
<rect x="5.5" y="12.1" width="0.6" height="0.6"/>
<rect x="7.2" y="12.1" width="0.6" height="0.6"/>
<rect x="7.7" y="12.1" width="0.6" height="0.6"/>
<rect x="9.4" y="12.1" width="0.6" height="0.6"/>
<rect x="9.9" y="12.1" width="0.6" height="0.6"/>
<rect x="11" y="12.1" width="0.6" height="0.6"/>
<rect x="11.6" y="12.1" width="0.6" height="0.6"/>
<rect x="2.2" y="12.7" width="0.6" height="0.6"/>
<rect x="5.5" y="12.7" width="0.6" height="0.6"/>
<rect x="6.6" y="12.7" width="0.6" height="0.6"/>
<rect x="7.2" y="12.7" width="0.6" height="0.6"/>
<rect x="8.3" y="12.7" width="0.6" height="0.6"/>
<rect x="8.8" y="12.7" width="0.6" height="0.6"/>
<rect x="9.4" y="12.7" width="0.6" height="0.6"/>
<rect x="10.5" y="12.7" width="0.6" height="0.6"/>
<rect x="2.2" y="13.2" width="0.6" height="0.6"/>
<rect x="2.8" y="13.2" width="0.6" height="0.6"/>
<rect x="3.3" y="13.2" width="0.6" height="0.6"/>
<rect x="3.9" y="13.2" width="0.6" height="0.6"/>
<rect x="4.4" y="13.2" width="0.6" height="0.6"/>
<rect x="5" y="13.2" width="0.6" height="0.6"/>
<rect x="5.5" y="13.2" width="0.6" height="0.6"/>
<rect x="6.6" y="13.2" width="0.6" height="0.6"/>
<rect x="7.7" y="13.2" width="0.6" height="0.6"/>
<rect x="8.8" y="13.2" width="0.6" height="0.6"/>
<rect x="13.2" y="13.2" width="0.6" height="0.6"/>
</svg>
